<svg xmlns="http://www.w3.org/2000/svg" width="44" height="44" viewBox="0 0 44 44">
  <g id="gmail" transform="translate(-189 -794)">
    <g id="White-Logo-Square-" transform="translate(183 788)">
      <rect id="Rectangle" width="44" height="44" transform="translate(6 6)" fill="#1a1818"/>
    </g>
    <g id="Group_31" data-name="Group 31" transform="translate(-74 5.23)">
      <g id="Google__G__Logo" transform="translate(276 801.77)">
        <path id="Path_142159" data-name="Path 142159" d="M281.224,225.03a11.176,11.176,0,0,0-.164-1.93H272.1v3.658h5.131a4.4,4.4,0,0,1-1.9,2.887v2.374h3.061A9.278,9.278,0,0,0,281.224,225.03Z" transform="translate(-262.6 -215.312)" fill="#fff"/>
        <path id="Path_142160" data-name="Path 142160" d="M37.389,331.979a9.094,9.094,0,0,0,6.3-2.293l-3.061-2.374a5.762,5.762,0,0,1-8.566-3.012H28.9v2.447A9.5,9.5,0,0,0,37.389,331.979Z" transform="translate(-27.889 -312.979)" fill="#fff"/>
        <path id="Path_142161" data-name="Path 142161" d="M4.116,156.084a5.69,5.69,0,0,1,0-3.637V150H.961a9.508,9.508,0,0,0,0,8.531Z" transform="translate(0.05 -144.763)" fill="#fff"/>
        <path id="Path_142162" data-name="Path 142162" d="M37.389,3.742a5.162,5.162,0,0,1,3.644,1.424l2.712-2.712A9.13,9.13,0,0,0,37.389-.018,9.5,9.5,0,0,0,28.9,5.218l3.156,2.447a5.682,5.682,0,0,1,5.334-3.923Z" transform="translate(-27.889 0.018)" fill="#fff"/>
      </g>
    </g>
  </g>
</svg>
