<svg xmlns="http://www.w3.org/2000/svg" width="54.45" height="30.947" viewBox="0 0 54.45 30.947">
  <g id="Group_2" data-name="Group 2" transform="translate(-49.616 -61.652)">
    <g id="Group_782" data-name="Group 782" transform="translate(85.314 85.429)">
      <path id="Path_1081" data-name="Path 1081" d="M200.672,164.518l.273,0c0,.008,0,.017,0,.028s0,.026,0,.047a.58.58,0,0,0,.145.415.511.511,0,0,0,.391.154.525.525,0,0,0,.4-.174.606.606,0,0,0,.161-.428.553.553,0,0,0-.083-.307,1.114,1.114,0,0,0-.323-.286l-.115-.071a1.681,1.681,0,0,1-.409-.317.665.665,0,0,1-.116-.208.738.738,0,0,1-.039-.244.82.82,0,0,1,.235-.589.761.761,0,0,1,.569-.245.678.678,0,0,1,.519.211.779.779,0,0,1,.2.554q0,.044,0,.067c0,.016,0,.029,0,.04H202.2c0-.008,0-.02,0-.036s0-.028,0-.036a.583.583,0,0,0-.118-.393.423.423,0,0,0-.339-.137.481.481,0,0,0-.36.147.5.5,0,0,0-.143.366q0,.3.5.6l.142.088a1,1,0,0,1,.34.334.845.845,0,0,1,.115.439.884.884,0,0,1-.258.639.841.841,0,0,1-.625.266.751.751,0,0,1-.574-.226.85.85,0,0,1-.213-.607c0-.025,0-.044,0-.057A.191.191,0,0,1,200.672,164.518Z" transform="translate(-200.666 -162.286)" fill="#0b0b0b" stroke="#1a1818" stroke-width="0.5"/>
      <path id="Path_1082" data-name="Path 1082" d="M220.717,164.035a2.171,2.171,0,0,1,.12-.737,1.6,1.6,0,0,1,.349-.574,1.479,1.479,0,0,1,.5-.347,1.56,1.56,0,0,1,.612-.118,1.2,1.2,0,0,1,.929.379,1.44,1.44,0,0,1,.348,1.013,1.844,1.844,0,0,1-.435,1.276,1.46,1.46,0,0,1-1.145.488,1.2,1.2,0,0,1-.929-.376A1.423,1.423,0,0,1,220.717,164.035Zm.284,0a1.133,1.133,0,0,0,.274.8.948.948,0,0,0,.733.3,1.169,1.169,0,0,0,.925-.412,1.567,1.567,0,0,0,.358-1.068,1.14,1.14,0,0,0-.276-.8.952.952,0,0,0-.736-.3,1.179,1.179,0,0,0-.463.092,1.26,1.26,0,0,0-.4.271,1.331,1.331,0,0,0-.311.49A1.814,1.814,0,0,0,221,164.031Z" transform="translate(-215.978 -162.259)" fill="#ef5a2e" stroke="#ef5a2e" stroke-width="0.5"/>
      <path id="Path_1083" data-name="Path 1083" d="M246.129,162.515l-.353,1.976c-.008.043-.013.086-.017.128s-.006.084-.006.124a.624.624,0,0,0,.145.443.62.62,0,0,0,.875-.053,2.177,2.177,0,0,0,.271-.838l.313-1.78h.273l-.319,1.836a3.124,3.124,0,0,1-.24.84.763.763,0,0,1-.314.314,1.009,1.009,0,0,1-.477.105.765.765,0,0,1-.58-.219.847.847,0,0,1-.209-.611,3.019,3.019,0,0,1,.05-.423v-.006l.319-1.836Z" transform="translate(-234.896 -162.455)" fill="#0b0b0b" stroke="#1a1818" stroke-width="0.5"/>
      <path id="Path_1084" data-name="Path 1084" d="M268.877,165.11a1.4,1.4,0,0,1-.42.23,1.51,1.51,0,0,1-.485.074,1.239,1.239,0,0,1-.95-.375,1.412,1.412,0,0,1-.352-1.008,2.16,2.16,0,0,1,.119-.735,1.581,1.581,0,0,1,.349-.572,1.506,1.506,0,0,1,1.11-.465,1.2,1.2,0,0,1,.93.379,1.45,1.45,0,0,1,.347,1.017,2.193,2.193,0,0,1-.112.723,1.6,1.6,0,0,1-.335.565.835.835,0,0,0,.174.074.585.585,0,0,0,.16.024l.057,0,.057-.008-.035.229-.058.006-.088,0a.8.8,0,0,1-.259-.041A.63.63,0,0,1,268.877,165.11Zm-1.893-.8a2.586,2.586,0,0,1,.381-.122,1.479,1.479,0,0,1,.333-.041,1.285,1.285,0,0,1,.6.149,1.865,1.865,0,0,1,.544.453,1.251,1.251,0,0,0,.3-.473,1.847,1.847,0,0,0,.1-.631,1.134,1.134,0,0,0-.275-.8.956.956,0,0,0-.737-.3,1.181,1.181,0,0,0-.576.145,1.268,1.268,0,0,0-.445.411,1.494,1.494,0,0,0-.19.413,1.686,1.686,0,0,0-.065.471q0,.077.007.157C266.966,164.2,266.974,164.255,266.984,164.312Zm.065.235a.968.968,0,0,0,.367.438,1.051,1.051,0,0,0,.568.148,1.1,1.1,0,0,0,.345-.055,1.345,1.345,0,0,0,.333-.168,1.885,1.885,0,0,0-.481-.393,1.047,1.047,0,0,0-.494-.12,1.268,1.268,0,0,0-.3.038A2.309,2.309,0,0,0,267.049,164.547Z" transform="translate(-251.072 -162.259)" fill="#ef5a2e" stroke="#ef5a2e" stroke-width="0.5"/>
    </g>
    <g id="Group_784" data-name="Group 784" transform="translate(49.616 61.652)">
      <path id="Path_1085" data-name="Path 1085" d="M129.658,102.644a3.126,3.126,0,0,1-.066.674,5.409,5.409,0,0,1-.3.772q-.246.444-.476.855-.28.428-.641.97a25.785,25.785,0,0,1-2.2,2.662,14.244,14.244,0,0,1-2.383,1.988,8.19,8.19,0,0,1-4.716,1.725,3.991,3.991,0,0,1-3.122-1.3,4.65,4.65,0,0,1-1.183-3.336,7.123,7.123,0,0,1,.575-2.826,14.937,14.937,0,0,1,.772-1.446,12.2,12.2,0,0,1,.937-1.347,9.337,9.337,0,0,1,2.366-1.906,5.65,5.65,0,0,1,2.547-.707,3.338,3.338,0,0,1,2.293.805,2.548,2.548,0,0,1,.912,1.988,3.447,3.447,0,0,1-.493,1.775,7.914,7.914,0,0,1-1.693,1.824,16.058,16.058,0,0,1-5.012,2.6,2.3,2.3,0,0,0,.493,1.331,1.852,1.852,0,0,0,1.413.575q1.89,0,4.207-2.12a17.266,17.266,0,0,0,2.5-2.72,29.075,29.075,0,0,0,2.7-3.671l.541.573Zm-7.609-.674a1.11,1.11,0,0,0-.131-.559.561.561,0,0,0-.444-.214,1.674,1.674,0,0,0-1.06.419,6.11,6.11,0,0,0-1.093,1.241,10.164,10.164,0,0,0-1.413,3.7,6.608,6.608,0,0,0,2.794-1.693A4.208,4.208,0,0,0,122.049,101.97Z" transform="translate(-99.221 -90.497)" fill="#0b0b0b"/>
      <path id="Path_1086" data-name="Path 1086" d="M178.351,103.209a2.607,2.607,0,0,1-.263.937q-.1.2-.345.608-.263.394-.641.871-1,1.347-2.186,2.728-.838.97-1.923,2.153a23.791,23.791,0,0,1-3.221,2.81,14.477,14.477,0,0,1-2.252,5.177,10.479,10.479,0,0,1-1.824,1.857,11.643,11.643,0,0,1-2.481,1.413l-.509-.115a3.029,3.029,0,0,1-.411-.772l-.066-.739a7.3,7.3,0,0,1,1.183-4.026,6.821,6.821,0,0,1,1.413-1.627,17.38,17.38,0,0,1,2.218-1.709q.033-.477.131-1.085t.312-1.446l.1-.279q-.066.066-.345.378-.263.329-.394.477a4.313,4.313,0,0,1-2.859,1.446,2.991,2.991,0,0,1-2.268-1.085,4.256,4.256,0,0,1-.838-2.761,7.168,7.168,0,0,1,.739-3.122,9.319,9.319,0,0,1,2.12-2.859,10.231,10.231,0,0,1,2.794-1.955,7.21,7.21,0,0,1,3.073-.641q1.1,0,1.512.033a4.873,4.873,0,0,1,.805.23q1.117.379,1.117,1.183L172.8,102.4l-.9,3.221-1.446,4.979q.575-.509,1.093-1.027t1.257-1.356q1.282-1.446,2.317-2.793,1.463-1.824,3.172-4.273a10.072,10.072,0,0,1-.033,1.068v.1a.35.35,0,0,0,.066.246Zm-8.217-1.446-.2-.115a1.433,1.433,0,0,0-.542-.066,2.215,2.215,0,0,0-1.167.411,8.075,8.075,0,0,0-1.594,1.545,13.007,13.007,0,0,0-1.939,3.024,6.44,6.44,0,0,0-.707,2.6,1.2,1.2,0,0,0,.164.739.412.412,0,0,0,.361.2q.921,0,2.465-2.186A32.556,32.556,0,0,0,170.134,101.763Zm-3.352,13.295a5.624,5.624,0,0,0-1.348,1.38,4.014,4.014,0,0,0-.674,2.35,3.079,3.079,0,0,0,.033.542.939.939,0,0,0,.033-.362,4.526,4.526,0,0,0,.509-.542,6.768,6.768,0,0,0,.624-.986,5.289,5.289,0,0,0,.477-1.035Q166.6,115.829,166.782,115.057Z" transform="translate(-134.586 -90.815)" fill="#ef5a2e"/>
      <path id="Path_1087" data-name="Path 1087" d="M236.816,102.427c.317.221.417.623.437,1.294a17.053,17.053,0,0,1-.318,2.557,3.312,3.312,0,0,1-1.194,2.154,2.172,2.172,0,0,1-.844.314l-.4.038a8.214,8.214,0,0,1-.889,2.318,9.646,9.646,0,0,1-.819,1.052,3.708,3.708,0,0,1-.872.8,4.3,4.3,0,0,1-6.334-1.293,7.867,7.867,0,0,1-.7-1.275,4.975,4.975,0,0,1-.343-1.357,9.575,9.575,0,0,1,.025-3.171,9.683,9.683,0,0,1,.976-3.034,6.417,6.417,0,0,1,1.925-2.083,3.839,3.839,0,0,1,3.188-.548,5,5,0,0,1,2.8,2.076,6.457,6.457,0,0,1,.867,1.878,5.031,5.031,0,0,1,.236.964q.089.482.15,1.158l.256-.055c.261-.175.667-.6.8-4.465Zm-6.313.281a2.289,2.289,0,0,0-1.2-.708,1.407,1.407,0,0,0-1.091.208,2.057,2.057,0,0,0-.49.522,5.118,5.118,0,0,0-.325.973,8.9,8.9,0,0,0,.011,3.4,13.8,13.8,0,0,0,.495,1.7,7.351,7.351,0,0,0,.751,1.471,2.864,2.864,0,0,0,1.308,1.195,1.3,1.3,0,0,0,1.275-.138,2.222,2.222,0,0,0,.8-1.253,8.763,8.763,0,0,0,.314-2.243l-.3-.186-.465-.637a5.779,5.779,0,0,1-.835-1.976A7.8,7.8,0,0,1,230.5,102.708Z" transform="translate(-183.107 -90.982)" fill="#ef5a2e"/>
      <g id="Group_783" data-name="Group 783">
        <path id="Path_1088" data-name="Path 1088" d="M58.137,72.418,57.3,73.4a26.252,26.252,0,0,1,2.605.352q1.147.221,2.122.491a16.6,16.6,0,0,1,1.712.565q2.589,1.082,2.589,3.015a3.357,3.357,0,0,1-1.081,2.31,10.405,10.405,0,0,1-2.81,2.016,18.492,18.492,0,0,1-3.556,1.384,12.687,12.687,0,0,1-3.318.5,6.969,6.969,0,0,1-3.883-.926,2.889,2.889,0,0,1-1.393-2.532,5.532,5.532,0,0,1,.852-2.622A30.5,30.5,0,0,1,53.778,74.2a4.321,4.321,0,0,1-1.9-.4,1.047,1.047,0,0,1-.557-.942.742.742,0,0,1,.213-.574A1.293,1.293,0,0,1,52.107,72q.361-.09,1.385-.221t2.63-.328a21.223,21.223,0,0,1,3.2-3.3,5.836,5.836,0,0,1,3.04-1.27,2.328,2.328,0,0,1,.287-.016q.156,0,.156.082,0,.1-.369.524t-1.2,1.36l-1.958,2.212a39.745,39.745,0,0,0,5.039-.942,9.077,9.077,0,0,0,2.958-1.27,2.063,2.063,0,0,0,1-1.638,1.65,1.65,0,0,0-1.065-1.59,8.192,8.192,0,0,0-3.261-.491,18.162,18.162,0,0,0-2.777.246q-1.565.246-2.835.557a23.5,23.5,0,0,0-2.261.664q-.992.353-.991.516c0,.033.033.065.1.1q.8.295.8.492,0,.262-2.458,1.008a14.414,14.414,0,0,1-3.31.745.536.536,0,0,1-.607-.606,6.088,6.088,0,0,1,1.319-2.6,7.22,7.22,0,0,1,2.4-2.4,14.488,14.488,0,0,1,1.753-.574q1.377-.393,3.023-.754t3.351-.606a21.387,21.387,0,0,1,3.015-.246,8.038,8.038,0,0,1,4.654,1.106,3.3,3.3,0,0,1,1.557,2.778,3.824,3.824,0,0,1-.713,2.179A7.231,7.231,0,0,1,67.756,69.7a16.028,16.028,0,0,1-3.925,1.638A34.679,34.679,0,0,1,58.137,72.418ZM56.4,74.532q-.852,1.016-1.516,1.794a9.888,9.888,0,0,0-.95,1.262,1.891,1.891,0,0,0-.287.975,1.752,1.752,0,0,0,.811,1.4,3.813,3.813,0,0,0,2.335.614,10.087,10.087,0,0,0,3.007-.5,9.052,9.052,0,0,0,2.688-1.3,2.161,2.161,0,0,0,1.09-1.622,1.341,1.341,0,0,0-.8-1.164,8.949,8.949,0,0,0-2.442-.811Q58.694,74.827,56.4,74.532Z" transform="translate(-49.616 -61.652)" fill="#0b0b0b"/>
      </g>
    </g>
  </g>
</svg>
