<svg xmlns="http://www.w3.org/2000/svg" width="845.199" height="482.603" viewBox="0 0 845.199 482.603">
  <g id="logo" transform="translate(-49.616 -61.652)">
    <g id="Group_782" data-name="Group 782" transform="translate(606.309 432.438)">
      <path id="Path_1081" data-name="Path 1081" d="M200.754,196.974l4.253.033c-.018.129-.033.273-.044.435s-.015.405-.015.733a9.045,9.045,0,0,0,2.263,6.468,7.964,7.964,0,0,0,6.1,2.4,8.192,8.192,0,0,0,6.258-2.713,9.457,9.457,0,0,0,2.513-6.678,8.625,8.625,0,0,0-1.29-4.8,17.373,17.373,0,0,0-5.031-4.467c-.376-.24-.977-.608-1.795-1.106a26.207,26.207,0,0,1-6.38-4.942,10.36,10.36,0,0,1-1.81-3.251,11.511,11.511,0,0,1-.615-3.8,12.781,12.781,0,0,1,3.671-9.18,11.861,11.861,0,0,1,8.878-3.818,10.568,10.568,0,0,1,8.1,3.284,12.144,12.144,0,0,1,3.066,8.642q0,.686-.011,1.039c-.011.243-.029.449-.048.619h-4.282c0-.129.011-.317.029-.567s.033-.439.033-.568a9.09,9.09,0,0,0-1.843-6.125,6.6,6.6,0,0,0-5.285-2.13,7.5,7.5,0,0,0-5.617,2.292,7.84,7.84,0,0,0-2.23,5.705q0,4.644,7.787,9.42c.958.586,1.692,1.039,2.215,1.367a15.513,15.513,0,0,1,5.3,5.215,13.186,13.186,0,0,1,1.795,6.844,13.792,13.792,0,0,1-4.024,9.962,13.109,13.109,0,0,1-9.752,4.142,11.719,11.719,0,0,1-8.952-3.527q-3.322-3.527-3.324-9.472c0-.391,0-.689.018-.9A2.948,2.948,0,0,1,200.754,196.974Z" transform="translate(-200.666 -162.165)" fill="#0b0b0b" stroke="#1a1818" stroke-width="1.2"/>
      <path id="Path_1082" data-name="Path 1082" d="M220.717,189.948a33.863,33.863,0,0,1,1.872-11.488,25.028,25.028,0,0,1,5.436-8.952,23.062,23.062,0,0,1,7.769-5.414,24.329,24.329,0,0,1,9.542-1.835q9.072,0,14.491,5.915t5.425,15.792q0,12.289-6.789,19.894t-17.86,7.6q-9.072,0-14.48-5.864T220.717,189.948Zm4.434-.063q0,7.833,4.268,12.464t11.425,4.633a18.232,18.232,0,0,0,14.418-6.424q5.589-6.418,5.587-16.655,0-7.828-4.3-12.512t-11.484-4.68a18.39,18.39,0,0,0-7.216,1.43,19.644,19.644,0,0,0-6.2,4.227A20.762,20.762,0,0,0,226.8,180,28.3,28.3,0,0,0,225.151,189.885Z" transform="translate(-146.819 -162.259)" fill="#ef5a2e" stroke="#ef5a2e" stroke-width="1.2"/>
      <path id="Path_1083" data-name="Path 1083" d="M255.462,162.515l-5.51,30.811c-.122.671-.21,1.334-.269,2s-.092,1.3-.092,1.931q0,4.489,2.263,6.907a9.674,9.674,0,0,0,13.64-.826q2.46-3.251,4.227-13.065l4.876-27.755h4.257l-4.972,28.632q-1.741,9.426-3.744,13.1a11.9,11.9,0,0,1-4.894,4.891,15.731,15.731,0,0,1-7.441,1.64q-5.782,0-9.048-3.409t-3.265-9.523a47.079,47.079,0,0,1,.781-6.6v-.1l4.972-28.632Z" transform="translate(-80.294 -161.572)" fill="#0b0b0b" stroke="#1a1818" stroke-width="1.2"/>
      <path id="Path_1084" data-name="Path 1084" d="M301.079,206.717a21.832,21.832,0,0,1-6.545,3.593,23.548,23.548,0,0,1-7.559,1.154q-9.315,0-14.808-5.853t-5.5-15.726a33.692,33.692,0,0,1,1.857-11.458,24.648,24.648,0,0,1,5.447-8.919,23.488,23.488,0,0,1,17.31-7.249q9.105,0,14.51,5.915t5.407,15.859a34.207,34.207,0,0,1-1.754,11.281,24.893,24.893,0,0,1-5.223,8.8,13.02,13.02,0,0,0,2.709,1.157,9.123,9.123,0,0,0,2.5.369,8.752,8.752,0,0,0,.885-.044c.288-.033.582-.074.884-.118l-.542,3.579c-.276.044-.578.074-.9.1s-.777.033-1.375.033a12.4,12.4,0,0,1-4.043-.634A9.825,9.825,0,0,1,301.079,206.717ZM271.55,194.271a40.309,40.309,0,0,1,5.945-1.9,23.063,23.063,0,0,1,5.2-.634,20.039,20.039,0,0,1,9.431,2.322,29.08,29.08,0,0,1,8.477,7.069,19.515,19.515,0,0,0,4.625-7.378A28.8,28.8,0,0,0,306.8,183.9q0-7.866-4.282-12.5t-11.5-4.633a18.42,18.42,0,0,0-8.985,2.263,19.781,19.781,0,0,0-6.947,6.416,23.307,23.307,0,0,0-2.967,6.435,26.29,26.29,0,0,0-1.017,7.345q0,1.2.107,2.455C271.278,192.524,271.388,193.383,271.55,194.271Zm1.021,3.671a15.1,15.1,0,0,0,5.716,6.829,16.38,16.38,0,0,0,8.864,2.307,17.191,17.191,0,0,0,5.377-.859,20.976,20.976,0,0,0,5.2-2.617,29.4,29.4,0,0,0-7.5-6.133,16.325,16.325,0,0,0-7.71-1.865,19.783,19.783,0,0,0-4.658.586A36.026,36.026,0,0,0,272.572,197.942Z" transform="translate(-23.411 -162.259)" fill="#ef5a2e" stroke="#ef5a2e" stroke-width="1.2"/>
    </g>
    <g id="Group_784" data-name="Group 784" transform="translate(49.616 61.652)">
      <path id="Path_1085" data-name="Path 1085" d="M349.828,149.649a48.742,48.742,0,0,1-1.024,10.507,84.333,84.333,0,0,1-4.614,12.044q-3.842,6.922-7.43,13.327-4.362,6.667-9.995,15.122-18.453,25.12-34.341,41.513a222.131,222.131,0,0,1-37.157,31.01q-37.929,26.911-73.551,26.908-30.5,0-48.689-20.244-18.453-19.471-18.453-52.024a111.085,111.085,0,0,1,8.97-44.075,232.9,232.9,0,0,1,12.044-22.555,190.23,190.23,0,0,1,14.605-21.011,145.608,145.608,0,0,1,36.9-29.727q21.527-11.018,39.722-11.02,21.527,0,35.753,12.556t14.222,31.006a53.754,53.754,0,0,1-7.688,27.678q-8.458,13.588-26.4,28.448-32.539,25.623-78.162,40.489,1.542,14.1,7.688,20.757,8.458,8.978,22.039,8.971,29.471,0,65.605-33.059,19.476-16.657,38.956-42.413c12.98-17.171,26.664-30.593,42.04-57.243l8.444,8.937ZM231.173,139.142a17.316,17.316,0,0,0-2.049-8.713,8.75,8.75,0,0,0-6.918-3.332q-8.458,0-16.529,6.534T188.635,152.98q-15.894,24.606-22.039,57.663a103.048,103.048,0,0,0,43.566-26.4Q231.17,162.207,231.173,139.142Z" transform="translate(124.822 39.781)" fill="#0b0b0b"/>
      <path id="Path_1086" data-name="Path 1086" d="M433.3,152.373q0,5.136-4.1,14.609-1.537,3.074-5.381,9.483-4.1,6.147-10,13.581-15.628,21.013-34.083,42.541-13.069,15.125-29.985,33.571a371.006,371.006,0,0,1-50.226,43.82q-11.532,48.179-35.112,80.727a163.413,163.413,0,0,1-28.445,28.957q-15.628,12.046-38.7,22.039l-7.942-1.795a47.225,47.225,0,0,1-6.409-12.044L181.9,416.331a113.8,113.8,0,0,1,18.453-62.786q7.17-12.3,22.039-25.371a271.037,271.037,0,0,1,34.6-26.65q.514-7.441,2.049-16.916t4.869-22.552l1.537-4.356q-1.023,1.028-5.381,5.893-4.1,5.136-6.151,7.434-23.578,22.544-44.591,22.551-19.985,0-35.362-16.913-13.074-16.148-13.072-43.054,0-24.6,11.532-48.693,11.018-23.832,33.059-44.591,21.527-20.5,43.566-30.494,21.527-10,47.922-10,17.171,0,23.576.512a75.977,75.977,0,0,1,12.56,3.586q17.425,5.9,17.425,18.453l-3.844,17.425-14.093,50.23L310.03,267.7q8.972-7.939,17.045-16.017t19.6-21.144q19.99-22.544,36.133-43.562,22.809-28.448,49.463-66.63,0,13.069-.516,16.655v1.541c0,1.88.347,3.162,1.028,3.844ZM305.161,129.821l-3.074-1.791q-2.051-1.023-8.458-1.028-8.2,0-18.2,6.409-10.509,6.916-24.859,24.088-19.73,23.584-30.239,47.152-11.018,23.838-11.02,40.492,0,8.458,2.565,11.532a6.428,6.428,0,0,0,5.635,3.074q14.357,0,38.443-34.083Q279.538,192.1,305.161,129.821ZM252.883,337.145q-14.351,11.012-21.015,21.527-10.509,15.12-10.507,36.645a47.991,47.991,0,0,0,.516,8.458c.343-.346.512-2.222.512-5.639q1.537-1.023,7.942-8.454a105.543,105.543,0,0,0,9.737-15.379,82.458,82.458,0,0,0,7.434-16.143Q250.062,349.182,252.883,337.145Z" transform="translate(249.187 40.901)" fill="#ef5a2e"/>
      <path id="Path_1087" data-name="Path 1087" d="M417.762,136.98c4.943,3.453,6.508,9.715,6.818,20.182,0,0-1.242,25.113-4.957,39.873Q414.25,221.757,401,230.628a33.876,33.876,0,0,1-13.169,4.894l-6.3.6q-5.782,23.191-13.865,36.144a150.451,150.451,0,0,1-12.77,16.4,57.83,57.83,0,0,1-13.6,12.431q-25.656,17.176-53.915,12.262-27.144-5.97-44.867-32.432a122.68,122.68,0,0,1-10.876-19.88,77.6,77.6,0,0,1-5.344-21.169q-3.942-22.715.383-49.456,4.4-27.088,15.217-47.311,12.361-20.654,30.022-32.48,22.709-15.208,49.71-8.539,27.414,8.2,43.6,32.37a100.676,100.676,0,0,1,13.515,29.281,78.451,78.451,0,0,1,3.678,15.041q1.388,7.524,2.344,18.052l3.991-.862c4.065-2.724,10.4-9.306,12.439-69.63Zm-98.454,4.389q-9.353-9.42-18.663-11.042a21.946,21.946,0,0,0-17.016,3.243,32.082,32.082,0,0,0-7.644,8.137,79.812,79.812,0,0,0-5.071,15.17q-5.02,23.888.169,53a215.206,215.206,0,0,0,7.714,26.524,114.657,114.657,0,0,0,11.709,22.946q10.045,15,20.4,18.634a20.235,20.235,0,0,0,19.883-2.145q8.2-5.49,12.5-19.537,4.157-13.345,4.9-34.975l-4.684-2.9-7.257-9.929a90.131,90.131,0,0,1-13.021-30.814A121.616,121.616,0,0,1,319.308,141.37Z" transform="translate(419.813 41.489)" fill="#ef5a2e"/>
      <g id="Group_783" data-name="Group 783">
        <path id="Path_1088" data-name="Path 1088" d="M182.5,229.544l-13.036,15.332a409.431,409.431,0,0,1,40.629,5.5q17.889,3.444,33.092,7.662a258.816,258.816,0,0,1,26.7,8.816q40.373,16.867,40.374,47.019,0,18.4-16.865,36.029t-43.824,31.434a288.394,288.394,0,0,1-55.452,21.59q-28.5,7.795-51.744,7.8-38.847,0-60.56-14.44T60.094,356.8q0-17.37,13.29-40.883T114.525,257.4q-20.958-1.017-29.642-6.262t-8.69-14.69q0-5.877,3.324-8.945a20.163,20.163,0,0,1,8.941-4.474q5.622-1.4,21.6-3.45t41.012-5.112q27.851-34.236,49.957-51.49t47.4-19.8a36.32,36.32,0,0,1,4.471-.254q2.427,0,2.429,1.275,0,1.537-5.749,8.178T230.92,173.58q-12.9,14.567-30.534,34.5,48.04-6.391,78.578-14.7t46.124-19.8q15.584-11.5,15.586-25.552,0-17.121-16.61-24.792t-50.852-7.662A283.225,283.225,0,0,0,229.9,119.4q-24.407,3.837-44.207,8.69a366.378,366.378,0,0,0-35.263,10.349q-15.468,5.5-15.461,8.053c0,.509.509,1.017,1.533,1.533q12.516,4.594,12.523,7.666,0,4.091-38.333,15.715T59.077,183.033q-9.459,0-9.461-9.453,0-11.244,20.572-40.5t37.437-37.433q5.877-2.814,27.343-8.945t47.148-11.757q25.673-5.611,52.253-9.453a333.51,333.51,0,0,1,47.019-3.837q48.295,0,72.571,17.252t24.276,43.316q0,17.63-11.112,33.984T332.5,187.124q-23.512,14.561-61.2,25.551T182.5,229.544Zm-27.092,32.963q-13.284,15.844-23.635,27.977t-14.819,19.681a29.494,29.494,0,0,0-4.474,15.2q0,12.267,12.649,21.851t36.416,9.579q21.975,0,46.887-7.791t41.911-20.318q16.988-12.516,16.994-25.293,0-10.99-12.523-18.147T216.738,272.6Q191.181,267.109,155.408,262.507Z" transform="translate(-49.616 -61.652)" fill="#0b0b0b"/>
      </g>
    </g>
  </g>
</svg>
