<svg xmlns="http://www.w3.org/2000/svg" width="16" height="17.779" viewBox="0 0 16 17.779">
  <g id="noun_Home_3496042" transform="translate(-3 -1.999)">
    <g id="Layer_2" data-name="Layer 2" transform="translate(3 1.999)">
      <path id="Path_2065" data-name="Path 2065" d="M11,19v3h2V19a1,1,0,0,0-2,0Z" transform="translate(-4 -4.222)" fill="#cecece"/>
      <path id="Path_2066" data-name="Path 2066" d="M3.889,19.778H8.333V17.111a2.667,2.667,0,0,1,5.333,0v2.667h4.444A.889.889,0,0,0,19,18.889V10a.889.889,0,0,0-.258-.631L11.631,2.258a.889.889,0,0,0-1.253,0L3.267,9.369A.889.889,0,0,0,3,10v8.889a.889.889,0,0,0,.889.889Z" transform="translate(-3 -1.999)" fill="#cecece"/>
    </g>
  </g>
</svg>
