<svg xmlns="http://www.w3.org/2000/svg" width="18" height="18.069" viewBox="0 0 18 18.069">
  <g id="noun_Sort_317771" transform="translate(-35.05 17.1)">
    <path id="Path_29955" data-name="Path 29955" d="M52.819-12.026a.768.768,0,0,1-1.135,0l-2.07-2.159V.168a.8.8,0,1,1-1.6,0V-14.185l-2.07,2.159a.768.768,0,0,1-1.135,0,.889.889,0,0,1,0-1.2l3.36-3.538.022-.022.045-.045h0a.723.723,0,0,1,.556-.245.808.808,0,0,1,.579.245h0l3.427,3.6A.867.867,0,0,1,52.819-12.026ZM39.912.636h0L39.846.7h0a.723.723,0,0,1-.556.245A.808.808,0,0,1,38.711.7h0L35.284-2.9a.889.889,0,0,1,0-1.2.768.768,0,0,1,1.135,0l2.07,2.159V-16.3a.8.8,0,0,1,.8-.8.8.8,0,0,1,.8.8V-1.946L42.16-4.1a.768.768,0,0,1,1.135,0,.889.889,0,0,1,0,1.2Z" fill="#1a1818" fill-rule="evenodd"/>
  </g>
</svg>
