<svg xmlns="http://www.w3.org/2000/svg" width="13.949" height="13.996" viewBox="0 0 13.949 13.996">
  <g id="noun_Phone_1788724" transform="translate(-48.757 -48.974)">
    <g id="Group_793" data-name="Group 793" transform="translate(48.893 49.182)">
      <path id="Path_2064" data-name="Path 2064" d="M54.356,50.971a1.857,1.857,0,0,1,0,2.67L53.6,54.4a28.081,28.081,0,0,0,3.715,3.715l.813-.755a1.857,1.857,0,0,1,2.67,0l1.219,1.219a1.934,1.934,0,0,1,.116,2.5,11.525,11.525,0,0,1-1.161,1.219c-1.161,1.161-3.483.29-5.747-1.393a20.637,20.637,0,0,1-4.353-4.353c-1.741-2.322-2.612-4.586-1.451-5.747A12.675,12.675,0,0,1,50.7,49.578a1.8,1.8,0,0,1,2.438.174Zm-1.8,3.367,1.277-1.277a1.159,1.159,0,0,0,0-1.567l-1.219-1.219a1.147,1.147,0,0,0-1.509-.058c-.348.29-.755.755-1.1,1.1-.813.813,0,2.728,1.451,4.76a22.24,22.24,0,0,0,4.237,4.179c1.974,1.509,3.889,2.322,4.7,1.509.348-.348.813-.755,1.161-1.161a1.151,1.151,0,0,0-.116-1.509l-1.219-1.219a1.16,1.16,0,0,0-1.567,0l-1.277,1.277A29.1,29.1,0,0,1,52.556,54.337Z" transform="translate(-48.893 -49.182)" fill="#ef5a2e" stroke="#ef5a2e" stroke-width="0.2"/>
    </g>
  </g>
</svg>
