<svg xmlns="http://www.w3.org/2000/svg" width="12.4" height="13.64" viewBox="0 0 12.4 13.64">
  <g id="noun_User_1150157" transform="translate(-20 -17)">
    <g id="Group_10739" data-name="Group 10739" transform="translate(20 17)">
      <path id="Path_29962" data-name="Path 29962" d="M26.2,969.362a3.307,3.307,0,1,0,3.307,3.307A3.313,3.313,0,0,0,26.2,969.362Zm0,.827a2.48,2.48,0,1,1-2.48,2.48A2.474,2.474,0,0,1,26.2,970.189Zm0,6.2a6.106,6.106,0,0,0-6.2,6.019V983h.827v-.594a5.376,5.376,0,0,1,10.747,0V983H32.4v-.594A6.106,6.106,0,0,0,26.2,976.389Z" transform="translate(-20 -969.362)" fill="#ef5a2e"/>
    </g>
  </g>
</svg>
