<svg xmlns="http://www.w3.org/2000/svg" width="18" height="15.14" viewBox="0 0 18 15.14">
  <g id="noun_cart_1533491" transform="translate(-9.3 -15.8)">
    <g id="Group" transform="translate(9.3 15.8)">
      <path id="Path" d="M34.418,65.5a2.073,2.073,0,1,0,2.029,2.051A2.029,2.029,0,0,0,34.418,65.5Z" transform="translate(-27.213 -54.504)" fill="#ef5a2e"/>
      <path id="Path-2" data-name="Path" d="M63.04,65.5a2.073,2.073,0,1,0,2.007,2.051A2.029,2.029,0,0,0,63.04,65.5Z" transform="translate(-49.481 -54.502)" fill="#ef5a2e"/>
      <path id="Path-3" data-name="Path" d="M26.628,18.123H13.522l-.575-1.836a.663.663,0,0,0-.619-.487H9.3v1.328h2.52l2.63,8.452a.641.641,0,0,0,.619.465h9.57a.685.685,0,0,0,.641-.465l1.989-6.593a.664.664,0,0,0-.641-.863Z" transform="translate(-9.3 -15.8)" fill="#ef5a2e"/>
    </g>
  </g>
</svg>
