<svg xmlns="http://www.w3.org/2000/svg" width="13.64" height="9.418" viewBox="0 0 13.64 9.418">
  <g id="noun_Email_681592" transform="translate(-8 -21)">
    <g id="Group_10740" data-name="Group 10740" transform="translate(8 21)">
      <path id="Path_29963" data-name="Path 29963" d="M9.3,973.362a1.3,1.3,0,0,0-1.3,1.3v6.82a1.3,1.3,0,0,0,1.3,1.3H20.341a1.3,1.3,0,0,0,1.3-1.3v-6.82a1.3,1.3,0,0,0-1.3-1.3Zm0,.65H20.341a.664.664,0,0,1,.157.02l-5.419,5.242a.429.429,0,0,1-.518,0l-5.419-5.242A.664.664,0,0,1,9.3,974.012Zm-.624.482,3.8,3.669-3.75,3.608a.65.65,0,0,1-.071-.289v-6.82A.657.657,0,0,1,8.675,974.494Zm12.29,0a.658.658,0,0,1,.025.167v6.82a.65.65,0,0,1-.071.289l-3.75-3.608Zm-8.028,4.12,1.167,1.127a1.034,1.034,0,0,0,1.431,0l1.167-1.127,3.654,3.517H9.284l3.654-3.517Z" transform="translate(-8 -973.362)" fill="#ef5a2e"/>
    </g>
  </g>
</svg>
