<svg xmlns="http://www.w3.org/2000/svg" width="46.713" height="44.053" viewBox="0 0 46.713 44.053">
  <g id="noun_like_939692" transform="translate(-5.436 -7.974)">
    <g id="Group_10742" data-name="Group 10742" transform="translate(5.436 7.974)">
      <path id="Path_29964" data-name="Path 29964" d="M24.435,964.961c-.218,5.748-.9,9.115-4.242,14.085a3.128,3.128,0,0,0-2.178-.9H8.581a3.173,3.173,0,0,0-3.145,3.145v18.868a3.173,3.173,0,0,0,3.145,3.145h9.434a3.133,3.133,0,0,0,2.26-.983,11.384,11.384,0,0,0,1.228.884,8.02,8.02,0,0,0,3.39,1.032c2.763.286,7.115.072,17.23.115a1.588,1.588,0,0,0,1-.36,9.409,9.409,0,0,0,3.44-5.094,1.579,1.579,0,0,0,.459-.377,8.077,8.077,0,0,0,1.867-6.06,1.565,1.565,0,0,0,.229-.229,7.841,7.841,0,0,0,1.687-6.994,6.081,6.081,0,0,0,1.31-4.373,5.2,5.2,0,0,0-3.079-4.16,1.578,1.578,0,0,0-.622-.131H35.507c.691-5.157.163-9.885-1.654-13.086a5.954,5.954,0,0,0-4.177-3.112C26.848,960.028,24.706,962.015,24.435,964.961Zm6.682.082c1.432,2.522,2.1,7.482,1.081,12.808a1.644,1.644,0,0,0,1.54,1.867H47.954a1.919,1.919,0,0,1,1.032,1.507,3,3,0,0,1-.835,2.162h-5.5a1.573,1.573,0,1,0,0,3.145h5.208a4.792,4.792,0,0,1-.819,3.145H42.648a1.572,1.572,0,1,0,0,3.145H45.76a4.792,4.792,0,0,1-.819,3.145H42.648a1.572,1.572,0,1,0,0,3.145h.54a6.37,6.37,0,0,1-1.736,2.1c-9.543-.029-14.092.125-16.247-.1a4.352,4.352,0,0,1-2.1-.606,22,22,0,0,1-1.949-1.49V983.076c4.919-6.576,6.159-11.175,6.42-17.967C28.071,962.4,30.418,963.524,31.117,965.043ZM8.581,981.291h9.434c-.036,6.247,0,12.572,0,18.868H8.581Z" transform="translate(-5.436 -960.336)" fill="#ef5a2e"/>
    </g>
  </g>
</svg>
